<?xml version="1.0" encoding="UTF-8"?><svg id="Layer_1" xmlns="http://www.w3.org/2000/svg" xmlns:xlink="http://www.w3.org/1999/xlink" viewBox="0 0 52 52"><defs><style>.cls-1{clip-path:url(#clippath);}.cls-2,.cls-3{fill:none;}.cls-2,.cls-4,.cls-5{stroke-width:0px;}.cls-6{clip-path:url(#clippath-1);}.cls-3{stroke:#fff;stroke-miterlimit:10;stroke-width:1.46px;}.cls-4{fill:#b31b1b;}.cls-5{fill:#fff;}</style><clipPath id="clippath"><rect class="cls-2" x="1" y="1" width="50" height="50"/></clipPath><clipPath id="clippath-1"><rect class="cls-2" x="1" y="1" width="50" height="50"/></clipPath></defs><g id="Exclaimation_Mark"><g class="cls-1"><g class="cls-6"><path class="cls-4" d="m50.27,26c0,13.4-10.87,24.27-24.27,24.27S1.73,39.4,1.73,26,12.6,1.73,26,1.73s24.27,10.87,24.27,24.27"/><circle class="cls-3" cx="26" cy="26" r="24.27"/><path class="cls-5" d="m22.28,37.97c0-1.17.31-2.06.94-2.65.63-.6,1.54-.9,2.74-.9s2.05.31,2.69.92.95,1.49.95,2.63-.32,1.97-.96,2.6c-.64.63-1.53.95-2.67.95s-2.08-.31-2.72-.93c-.64-.62-.96-1.49-.96-2.62m6.25-7.15h-5.1l-1.07-20.42h7.23l-1.07,20.42Z"/></g></g></g></svg>